<svg width="30" height="27" viewBox="0 0 30 27" fill="none" xmlns="http://www.w3.org/2000/svg">
<path d="M14.9888 0C28.9971 0 35.18 17.2174 24.8429 26.113L24.4565 26.4L24.2632 25.9217C23.1039 23.2435 20.8819 21.2348 17.9837 20.3739L17.2108 20.087L17.9837 19.7043C23.0073 16.7391 20.8819 8.9913 14.9888 8.9913C9.09564 8.9913 7.06685 16.7391 12.0905 19.7043L12.7668 20.087L11.9939 20.3739C9.19224 21.2348 6.87363 23.2435 5.71432 25.9217L5.5211 26.4L5.13467 26.113C-5.20249 17.1217 1.07709 0 14.9888 0ZM14.9888 0.765217C1.94657 0.765217 -4.04318 16.5478 5.23128 25.1565C6.48719 22.7652 8.51598 20.8522 11.0278 19.8957C6.10076 16.2609 8.7092 8.32174 14.9888 8.32174C21.365 8.32174 23.8768 16.2609 18.9497 19.8957C21.4616 20.8522 23.587 22.7652 24.7463 25.1565C34.1173 16.5478 28.031 0.765217 14.9888 0.765217Z" fill="#7C7C7C"/>
</svg>
