<svg width="31" height="31" viewBox="0 0 31 31" fill="none" xmlns="http://www.w3.org/2000/svg">
<path d="M28.5389 18.4856C28.1947 18.4856 27.8505 18.4823 27.5062 18.4856C26.8608 18.4922 26.275 18.8023 25.9142 19.3369C25.5799 19.8352 25.4971 20.5083 25.7222 21.0659C25.9076 21.5312 26.2783 21.848 26.6225 22.1944C26.7417 22.3132 26.8774 22.4287 26.9833 22.564C27.1786 22.8082 27.2646 23.115 27.2448 23.4252C27.2216 23.8179 26.9998 24.0983 26.735 24.359C26.1095 24.9794 25.4839 25.603 24.8583 26.2233C24.6664 26.4147 24.4777 26.6061 24.2857 26.7942C23.8886 27.1835 23.2795 27.2825 22.7864 27.0054C22.6143 26.9064 22.4819 26.7678 22.3462 26.6292C22.184 26.4675 22.0218 26.3058 21.8563 26.1408C21.4624 25.7482 20.9792 25.4908 20.4099 25.4974C19.7843 25.5073 19.2018 25.8241 18.841 26.3322C18.5365 26.7645 18.5166 27.2561 18.5166 27.761C18.5166 28.1866 18.5762 28.6552 18.3611 29.0413C18.1228 29.4636 17.6925 29.6814 17.2159 29.6814C16.4016 29.6847 15.5874 29.6814 14.7699 29.6814C14.4157 29.6814 14.0583 29.6814 13.7041 29.6814C13.2871 29.6814 12.9031 29.556 12.6284 29.2227C12.3106 28.8367 12.3504 28.3714 12.3504 27.9095C12.3504 27.4079 12.3636 26.9196 12.1021 26.4642C11.791 25.9198 11.2151 25.5766 10.5961 25.5139C10.0169 25.4545 9.46416 25.6954 9.06035 26.0979C8.9081 26.2497 8.75584 26.4015 8.60359 26.5533C8.48444 26.6721 8.36859 26.8074 8.23289 26.9064C7.73641 27.2759 7.04133 27.2165 6.60112 26.7909C6.07816 26.2827 5.56844 25.7614 5.0521 25.2466C4.76415 24.9596 4.47288 24.6692 4.18492 24.3821C3.93337 24.1313 3.71492 23.8806 3.65865 23.511C3.50309 22.4485 4.74429 22.0228 5.12823 21.1847C5.3864 20.6172 5.3533 19.9506 5.03556 19.4128C4.70788 18.8584 4.12203 18.5153 3.47661 18.4856C3.11252 18.4691 2.74513 18.4889 2.38104 18.4823C1.81175 18.4757 1.30865 18.1127 1.1597 17.5551C1.0935 17.301 1.11998 17.0172 1.11998 16.7565C1.11998 16.3012 1.11998 15.8458 1.11998 15.3905C1.11998 14.9384 1.11998 14.4864 1.11998 14.0343C1.11998 13.7736 1.09681 13.4899 1.16632 13.2391C1.31858 12.6913 1.82499 12.3383 2.38766 12.335C2.75506 12.3317 3.12576 12.3515 3.49316 12.3317C4.84689 12.2657 5.70415 10.8237 5.13154 9.60613C4.73767 8.77131 3.50971 8.35555 3.66196 7.28976C3.71492 6.92349 3.93668 6.66942 4.18492 6.42194C4.47288 6.13487 4.75753 5.8478 5.04548 5.56072C5.56513 5.04267 6.07816 4.51472 6.60443 4.00327C7.0314 3.58751 7.68014 3.51822 8.17993 3.84159C8.33218 3.94058 8.45796 4.08577 8.58704 4.21445C8.74261 4.36954 8.89817 4.52462 9.05373 4.67971C9.45423 5.07897 9.99042 5.32645 10.5663 5.27695C11.1886 5.22416 11.7645 4.89419 12.0889 4.35634C12.357 3.91088 12.3537 3.42583 12.3537 2.92758C12.3537 2.46232 12.304 1.99377 12.6019 1.59781C12.8667 1.24474 13.2672 1.10285 13.6942 1.10285C14.045 1.10285 14.3925 1.10285 14.7434 1.10285C15.5642 1.10285 16.3851 1.10285 17.2059 1.10285C17.6528 1.10285 18.0731 1.28434 18.3214 1.6671C18.5762 2.06966 18.5233 2.53821 18.5233 2.99027C18.5233 3.49512 18.5365 3.98348 18.8278 4.42233C19.1753 4.94038 19.7578 5.26375 20.3801 5.28685C20.9461 5.30995 21.4459 5.05917 21.8397 4.66651C21.9953 4.51142 22.1509 4.35634 22.3064 4.20125C22.4355 4.07257 22.558 3.93068 22.7102 3.83169C23.21 3.50502 23.8621 3.57761 24.2857 3.99337C24.4711 4.17486 24.6531 4.35964 24.8352 4.54112C25.464 5.16806 26.0896 5.7917 26.7185 6.41864C26.9667 6.66942 27.1819 6.91689 27.2381 7.28316C27.2845 7.58673 27.2083 7.8969 27.0429 8.15097C26.9436 8.30276 26.8012 8.42815 26.6721 8.55354C26.3544 8.87031 25.9671 9.18707 25.7719 9.59953C25.5038 10.1704 25.5269 10.8369 25.8447 11.3847C26.1691 11.9456 26.7615 12.2921 27.4102 12.3251C27.7743 12.3416 28.1417 12.3251 28.5058 12.3284C29.0619 12.3317 29.5683 12.6682 29.7305 13.2127C29.8066 13.4734 29.7834 13.7604 29.7834 14.031C29.7834 14.9384 29.7834 15.8425 29.7834 16.7499C29.7834 16.9743 29.8066 17.2185 29.7669 17.4396C29.6643 18.05 29.1446 18.479 28.5389 18.4856C28.1119 18.4922 28.1119 19.1521 28.5389 19.1455C29.32 19.1356 30.0151 18.6671 30.3097 17.9444C30.4454 17.6112 30.4454 17.2647 30.4454 16.9116C30.4454 16.0042 30.4454 15.0935 30.4454 14.1861C30.4454 13.9419 30.4619 13.6911 30.4388 13.4437C30.3726 12.6715 29.8562 12.0116 29.1148 11.7674C28.6746 11.6255 28.1649 11.6783 27.7048 11.6783C27.5162 11.6783 27.3507 11.6849 27.1786 11.642C26.9171 11.576 26.7218 11.4474 26.5364 11.2428C26.2253 10.8963 26.1459 10.3288 26.3544 9.9097C26.5364 9.54674 26.9072 9.25967 27.1951 8.9693C27.3606 8.80431 27.5228 8.63933 27.6452 8.43475C27.8372 8.10808 27.9332 7.71542 27.9001 7.33925C27.8571 6.8212 27.6188 6.39884 27.2547 6.03588C26.6424 5.42544 26.03 4.815 25.4177 4.20455C25.2026 3.99007 24.9874 3.7723 24.769 3.55782C24.3089 3.10246 23.68 2.89458 23.0379 3.00677C22.4653 3.10906 22.088 3.48522 21.6974 3.87459C21.3797 4.19136 21.105 4.51472 20.6813 4.61042C20.2312 4.70941 19.6883 4.51142 19.4136 4.12536C19.1488 3.7525 19.1786 3.35984 19.1786 2.90118C19.1786 2.35673 19.1952 1.82218 18.8873 1.34043C18.5299 0.782784 17.9176 0.452815 17.2556 0.446216C16.4811 0.439617 15.7033 0.446216 14.9287 0.446216C14.5448 0.446216 14.1575 0.446216 13.7736 0.446216C13.3168 0.446216 12.8766 0.522109 12.496 0.795982C11.9532 1.18864 11.6884 1.78589 11.6884 2.44582C11.6884 2.6735 11.6884 2.90118 11.6884 3.13216C11.6884 3.31694 11.6983 3.49182 11.6619 3.65351C11.5461 4.17156 11.1356 4.52462 10.616 4.61371C10.4273 4.64671 10.1427 4.61701 9.9474 4.52462C9.75542 4.43553 9.62303 4.31674 9.4774 4.17156C9.16296 3.85809 8.85514 3.47862 8.47451 3.24765C7.78605 2.83189 6.90232 2.91108 6.28007 3.40603C6.08147 3.56442 5.90605 3.7624 5.72732 3.94058C5.38971 4.27715 5.0521 4.61701 4.7145 4.95358C4.40668 5.26045 4.10217 5.56732 3.79436 5.87089C3.54612 6.11837 3.30119 6.35595 3.15555 6.68592C2.8378 7.40855 2.99337 8.24336 3.54612 8.80761C3.79105 9.05839 4.0426 9.29926 4.28753 9.55004C4.47619 9.74142 4.58872 9.9493 4.63837 10.2067C4.67809 10.4146 4.64499 10.7049 4.56224 10.8963C4.35703 11.3781 3.92344 11.6651 3.40379 11.6684C3.05626 11.6717 2.70872 11.6651 2.36449 11.6684C1.62308 11.6783 0.924702 12.1073 0.623504 12.7936C0.46794 13.1467 0.454701 13.5064 0.454701 13.8825C0.454701 14.3115 0.454701 14.7404 0.454701 15.1727C0.454701 15.6512 0.454701 16.1263 0.454701 16.6048C0.454701 16.8456 0.444771 17.0865 0.458011 17.3241C0.504349 18.0995 1.01076 18.7694 1.74224 19.03C2.18907 19.1884 2.70541 19.1323 3.1721 19.1323C3.64541 19.1323 4.0095 19.1983 4.32393 19.5481C4.63837 19.8978 4.73767 20.4522 4.53908 20.8778C4.36696 21.2474 3.99295 21.5345 3.70168 21.8249C3.5395 21.9865 3.38062 22.1449 3.26147 22.3429C3.05957 22.6696 2.96027 23.0754 2.99337 23.4615C3.0364 23.9829 3.27802 24.4052 3.6421 24.7682C3.90358 25.0288 4.16506 25.2895 4.42654 25.5502C4.98922 26.1111 5.55189 26.6754 6.11788 27.2363C6.59119 27.7016 7.25317 27.9029 7.90852 27.761C8.47451 27.6389 8.8419 27.2429 9.23247 26.8536C9.55683 26.5302 9.82824 26.2233 10.2916 26.1639C10.4803 26.1408 10.7749 26.1804 10.9602 26.2728C11.2018 26.3916 11.3806 26.5401 11.513 26.7579C11.7347 27.1241 11.6884 27.5531 11.6884 28.0019C11.6884 28.5529 11.7049 29.0842 12.0525 29.5494C12.4298 30.0543 13.0024 30.3347 13.6346 30.3347C13.9424 30.3347 14.2502 30.3347 14.558 30.3347C15.4219 30.3347 16.2858 30.3347 17.1497 30.3347C17.6594 30.3347 18.1261 30.1995 18.5233 29.8662C19.0131 29.4504 19.1786 28.8631 19.1786 28.246C19.1786 27.8435 19.1223 27.3782 19.2349 27.012C19.3077 26.7777 19.4467 26.5764 19.6552 26.4114C19.8174 26.2827 20.1054 26.1705 20.3007 26.154C20.5688 26.1342 20.7905 26.1738 21.0189 26.2992C21.1844 26.3916 21.3002 26.5137 21.4359 26.649C21.7603 26.9724 22.0814 27.3716 22.4885 27.5861C23.1968 27.9623 24.0706 27.8534 24.673 27.3221C24.855 27.1637 25.0172 26.9823 25.1893 26.814C25.8348 26.1738 26.4769 25.5337 27.1223 24.8903C27.3937 24.6197 27.6452 24.3524 27.7843 23.9829C28.0524 23.2866 27.8538 22.4947 27.3341 21.97C27.0793 21.7094 26.8045 21.4652 26.5596 21.1979C26.3941 21.0164 26.2783 20.7426 26.2551 20.5479C26.2286 20.2905 26.2683 20.0529 26.3676 19.8483C26.5894 19.4029 26.9965 19.1422 27.4996 19.1389C27.8405 19.1356 28.1848 19.1389 28.5257 19.1389C28.9659 19.1455 28.9659 18.4856 28.5389 18.4856Z" fill="#7C7C7C"/>
<path d="M20.3834 15.3971C20.3735 17.4264 19.0859 19.3138 17.1596 20.01C15.1902 20.7195 12.9693 20.109 11.6354 18.5054C10.3214 16.9248 10.1758 14.6052 11.2349 12.8563C12.2941 11.1108 14.3992 10.1737 16.4083 10.5762C18.4273 10.9821 19.9995 12.6187 20.3271 14.6448C20.3669 14.8922 20.3834 15.1463 20.3834 15.3971C20.3867 15.8227 21.0487 15.8227 21.0454 15.3971C21.0355 13.0642 19.5493 10.959 17.3549 10.1539C15.177 9.35536 12.6251 10.0516 11.1522 11.8367C9.66275 13.6449 9.44099 16.255 10.6623 18.2711C11.8804 20.2806 14.28 21.3167 16.5837 20.8547C18.8178 20.406 20.625 18.5318 20.9693 16.2814C21.0156 15.9877 21.0388 15.694 21.0421 15.3971C21.0487 14.9714 20.3867 14.9714 20.3834 15.3971Z" fill="#7C7C7C"/>
</svg>
